<svg width="22" height="19" viewBox="0 0 22 19" fill="none" xmlns="http://www.w3.org/2000/svg">
<path fill-rule="evenodd" clip-rule="evenodd" d="M17.9984 4.14033C16.4864 2.19159 13.4515 2.51841 12.3891 4.74437C11.8315 5.91271 10.1685 5.91271 9.61084 4.74437C8.54845 2.51841 5.51357 2.1916 4.00161 4.14033L3.69226 4.53906C2.3632 6.25206 2.5551 8.69489 4.13534 10.1794L11 16.628L17.8646 10.1794C19.4449 8.69489 19.6368 6.25206 18.3077 4.53905L17.9984 4.14033ZM11 3.15842C12.9769 0.256991 17.329 0.0149016 19.5785 2.91434L19.8879 3.31306C21.8493 5.84112 21.5661 9.44627 19.234 11.637L12.2814 18.1683C12.2748 18.1745 12.2681 18.1808 12.2613 18.1871C12.1598 18.2826 12.0374 18.3977 11.9198 18.4883C11.781 18.5952 11.5726 18.7302 11.2888 18.7859C11.0981 18.8233 10.9019 18.8233 10.7111 18.7859C10.4274 18.7302 10.219 18.5952 10.0802 18.4883C9.96259 18.3977 9.84019 18.2826 9.73865 18.1871C9.73187 18.1808 9.72518 18.1745 9.7186 18.1683L2.76599 11.637C0.433866 9.44627 0.150663 5.84113 2.11209 3.31306L2.42144 2.91434C4.671 0.0149066 9.02305 0.25699 11 3.15842Z" fill="white"/>
</svg>
